# xmcd CD database file
#
# Track frame offsets:
#	150
#	26717
#	56311
#	81921
#	120913
#	141325
#	164452
#	197246
#	226433
#	240515
#	254045
#	274869
#	295874
#
# Disc length: 4368 seconds
#
# Revision: 1
# Processed by: cddbd v1.5.1PL0 Copyright (c) Steve Scherf et al.
# Submitted via: CDex 1.51
#
DISCID=bc110e0d
DTITLE=Betty Carter - Round Midnight Vol.2
DYEAR=1971
DGENRE=Jazz
TTITLE0=I didn't know what time it was
TTITLE1=Something wonderful
TTITLE2=What's new
TTITLE3=Girl talk
TTITLE4=All through the day
TTITLE5=Musi maestro please - Swing brother swing
TTITLE6=I was telling him about you
TTITLE7=Wagon wheels
TTITLE8=New Blues
TTITLE9=Most gentlemen don't like love
TTITLE10=Making dreams come true
TTITLE11=Open the door
TTITLE12=Just friends - Star eyes
EXTD=YEAR: 1971
EXTT0=
EXTT1=
EXTT2=
EXTT3=
EXTT4=
EXTT5=
EXTT6=
EXTT7=
EXTT8=
EXTT9=
EXTT10=
EXTT11=
EXTT12=
PLAYORDER=
